<?xml version="1.0" standalone="no"?>
<!DOCTYPE svg PUBLIC "-//W3C//DTD SVG 20010904//EN"
 "http://www.w3.org/TR/2001/REC-SVG-20010904/DTD/svg10.dtd">
<svg version="1.0" xmlns="http://www.w3.org/2000/svg"
 width="540.000000pt" height="486.000000pt" viewBox="0 0 540.000000 486.000000"
 preserveAspectRatio="xMidYMid meet">

<g transform="translate(0.000000,486.000000) scale(0.100000,-0.100000)"
fill="#000000" stroke="none">
<path d="M0 4300 l0 -559 25 24 c23 24 28 25 170 25 l145 0 0 220 0 221 25 24
24 25 886 0 c583 0 885 3 885 10 0 6 7 10 15 10 17 0 20 -16 6 -25 -6 -3 -408
-5 -896 -5 l-886 0 -24 -24 -25 -25 0 -216 0 -215 470 0 470 0 0 108 c0 93 3
111 18 125 17 15 57 17 374 17 276 0 357 3 361 13 6 14 6 14 43 -103 26 -82
47 -265 28 -247 -5 4 -7 24 -5 45 2 31 1 34 -12 23 -11 -9 -13 -20 -7 -40 4
-16 4 -35 -1 -42 -5 -8 -9 -30 -9 -49 0 -19 -7 -44 -15 -54 -10 -13 -12 -32
-8 -61 4 -33 2 -42 -10 -42 -16 0 -42 71 -32 87 3 6 4 10 0 10 -3 0 -10 -11
-15 -25 -7 -19 -5 -33 10 -58 15 -26 21 -61 26 -170 7 -128 8 -138 30 -152 13
-8 26 -15 30 -15 4 0 4 33 0 73 -9 104 -7 301 3 377 7 48 8 23 4 -91 -7 -212
2 -236 37 -94 15 61 42 145 59 188 19 46 29 86 26 97 -10 31 25 170 46 188 11
9 19 24 19 33 0 9 7 19 15 23 8 3 15 12 15 20 0 12 8 10 35 -9 60 -40 180 -56
282 -36 39 8 42 6 52 -18 5 -14 12 -56 15 -93 4 -37 18 -129 31 -205 14 -76
27 -150 30 -165 3 -19 0 -28 -9 -28 -7 0 -23 -11 -35 -24 -13 -14 -28 -23 -35
-20 -6 2 -18 -1 -26 -6 -13 -8 -10 -14 14 -35 16 -14 34 -25 40 -25 6 0 22 -9
36 -19 23 -19 24 -20 7 -39 -21 -23 -22 -32 -2 -32 9 0 18 -12 22 -30 3 -17
10 -33 14 -36 5 -3 9 -18 9 -35 0 -16 9 -38 20 -49 12 -12 20 -34 20 -52 0
-18 9 -53 20 -77 24 -53 25 -59 3 -83 -15 -16 -15 -18 0 -18 9 0 20 -8 26 -17
23 -41 23 5 2 110 -13 62 -29 141 -37 177 -7 36 -13 92 -12 125 0 33 2 49 5
35 32 -215 59 -330 77 -330 11 0 34 -22 51 -50 5 -8 14 -51 21 -95 11 -74 11
-76 13 -29 0 29 12 78 27 115 19 46 26 80 25 120 -1 30 5 75 14 99 8 24 13 51
10 61 -3 9 -1 20 5 24 7 4 14 -2 17 -14 7 -28 23 -27 24 2 0 21 1 21 8 2 6
-15 10 -3 16 42 6 54 4 66 -14 92 -30 41 -26 50 7 17 22 -21 32 -43 43 -99
l13 -72 7 45 c3 25 7 34 8 20 1 -14 8 -90 16 -170 9 -80 16 -228 16 -330 0
-102 1 -205 2 -230 2 -42 1 -45 -32 -54 -22 -6 -41 -22 -54 -44 -12 -20 -23
-30 -25 -23 -3 10 -82 51 -97 51 -1 0 6 -17 16 -37 14 -27 19 -57 18 -108 0
-38 8 -113 19 -165 12 -52 24 -117 28 -145 4 -27 15 -72 25 -98 11 -26 19 -64
19 -85 0 -20 7 -71 16 -112 15 -73 15 -115 -2 -266 -5 -43 -9 -51 -24 -47 -13
4 -23 -5 -35 -31 -9 -19 -14 -40 -10 -45 3 -6 1 -11 -4 -11 -6 0 -11 -7 -11
-15 0 -8 4 -15 8 -15 4 0 15 -21 25 -47 17 -45 17 -46 -1 -30 -21 19 -42 22
-42 7 0 -6 -9 -6 -26 0 -34 13 -34 13 -34 -12 0 -20 -1 -21 -20 -3 -11 10 -35
19 -53 20 -44 3 -77 22 -77 45 0 10 -4 22 -10 25 -6 3 -7 -1 -4 -9 7 -19 4
-19 -30 -6 -14 5 -26 14 -26 20 0 5 -18 29 -41 52 -38 39 -41 46 -36 83 5 35
2 44 -27 75 -26 27 -36 50 -45 98 -15 75 -58 213 -72 227 -7 7 -15 4 -25 -9
-8 -12 -14 -15 -14 -7 0 11 -3 11 -16 0 -10 -8 -14 -23 -11 -38 2 -14 0 -53
-4 -86 -12 -75 -11 -162 2 -290 5 -55 11 -111 12 -124 1 -17 -4 -25 -20 -27
-18 -3 -23 2 -29 31 -3 19 -10 35 -14 35 -5 0 -18 -25 -31 -55 -12 -30 -26
-52 -30 -49 -5 3 -11 -7 -15 -21 -3 -13 -10 -23 -14 -20 -5 3 -11 -4 -15 -15
-8 -25 -25 -26 -25 -2 0 30 -11 33 -41 11 -16 -11 -29 -16 -29 -10 0 24 -19 9
-31 -24 -7 -19 -16 -35 -19 -35 -9 0 -30 71 -30 99 0 11 -4 21 -10 21 -5 0
-10 9 -10 21 0 15 -5 19 -15 15 -11 -4 -15 2 -15 24 0 36 -12 38 -33 7 l-15
-22 -10 26 c-14 37 -48 256 -72 469 -12 102 -30 219 -41 260 -11 41 -22 116
-25 165 -3 50 -10 102 -16 117 -5 14 -10 48 -10 73 -1 36 -9 59 -32 94 -26 39
-36 46 -68 49 -37 3 -38 5 -53 60 -9 31 -27 94 -41 140 -25 82 -25 82 -6 125
20 45 32 117 58 337 9 74 22 166 30 203 8 38 14 100 14 138 l0 69 -122 0 -121
0 -56 -42 c-93 -70 -185 -154 -251 -233 -66 -76 -170 -222 -170 -237 0 -4 42
-8 93 -8 59 0 97 -4 105 -12 17 -17 17 -509 0 -526 -9 -9 -69 -12 -209 -12
l-198 0 -8 -57 c-12 -86 -9 -357 5 -440 27 -159 32 -175 56 -168 11 3 54 13
95 22 244 52 497 -129 541 -386 23 -136 -23 -282 -120 -386 l-52 -54 75 -59
c150 -119 334 -216 518 -272 148 -46 163 -51 114 -44 -65 9 -223 63 -320 109
-115 54 -209 111 -313 192 l-82 64 -69 -34 c-94 -47 -188 -63 -282 -47 -191
32 -344 179 -385 369 -7 36 -14 70 -14 74 0 4 -44 6 -97 5 l-97 -3 -214 -370
c-195 -338 -212 -370 -196 -382 14 -10 239 -13 1117 -13 l1098 0 -21 30 c-12
16 -17 30 -11 30 6 0 11 -6 11 -12 1 -7 9 -3 19 9 23 28 27 28 34 3 3 -13 0
-20 -9 -20 -8 0 -14 -10 -14 -21 0 -18 4 -21 30 -16 16 4 32 2 35 -3 4 -7
-404 -10 -1140 -10 l-1146 0 -24 25 -25 24 0 -314 0 -315 2700 0 2700 0 0 560
0 559 -25 -24 c-23 -24 -30 -25 -137 -25 -108 0 -114 -1 -123 -22 -6 -13 -20
-24 -32 -26 -23 -3 -23 -4 -23 -198 0 -194 0 -195 -25 -219 l-24 -25 -943 2
-943 3 943 5 944 5 19 24 c17 21 19 41 19 207 0 182 0 183 -25 208 -32 32 -32
50 0 82 l25 25 0 1292 c0 711 -4 1297 -8 1303 -4 6 -110 -240 -237 -547 l-229
-559 -152 0 -151 0 -7 -58 c-9 -77 -52 -167 -108 -222 l-45 -45 -6 -145 c-6
-149 -23 -265 -56 -382 l-18 -68 96 0 c147 0 141 9 141 -215 0 -154 -3 -186
-16 -199 -13 -14 -48 -16 -224 -16 l-208 0 -53 -68 c-81 -103 -185 -207 -284
-284 -142 -110 -340 -221 -382 -213 -10 2 -20 4 -22 4 -3 1 1 7 7 13 10 10 14
10 20 1 14 -23 215 85 347 185 86 65 218 195 288 282 l60 75 -79 3 c-115 4
-114 2 -114 218 0 231 -17 214 224 214 l184 0 11 32 c40 121 83 457 68 520
l-7 27 -58 -27 c-50 -24 -69 -27 -157 -27 -91 0 -106 3 -165 31 -83 39 -150
106 -192 192 -31 62 -33 74 -33 167 0 91 3 106 31 165 56 118 181 212 302 227
28 3 52 7 52 10 0 8 -55 91 -98 148 -68 89 -217 239 -304 306 l-77 59 -105 0
c-64 0 -106 4 -106 10 0 7 173 10 500 10 483 0 500 1 510 19 6 12 10 99 10
214 0 171 -2 197 -17 216 -18 21 -19 21 -698 24 l-680 2 687 3 687 2 15 -22
c12 -17 16 -48 16 -125 l0 -103 400 0 401 0 24 -25 25 -24 0 -1298 0 -1298 30
-17 c17 -9 30 -24 30 -33 0 -13 17 -15 110 -15 104 0 112 1 135 25 l25 24 0
1546 0 1546 -25 24 -24 25 -833 0 -833 0 -10 -22 c-7 -17 -20 -24 -47 -26 -30
-3 -40 1 -54 22 l-16 26 -447 2 -446 3 444 2 443 3 28 30 c15 17 34 30 42 30
21 0 58 -29 58 -46 0 -12 115 -14 840 -14 l841 0 24 -25 25 -24 0 314 0 315
-2700 0 -2700 0 0 -560z m2328 331 c65 -43 91 -91 48 -91 -7 0 -21 -9 -31 -20
-15 -17 -27 -19 -82 -16 -36 3 -67 7 -70 10 -9 9 26 99 49 123 27 29 34 29 86
-6z m-135 -219 c-10 -3 -11 -7 -4 -16 8 -9 2 -12 -24 -12 -44 0 -44 12 -2 47
32 27 32 27 38 6 3 -14 0 -23 -8 -25z m384 22 c-3 -3 -12 -4 -19 -1 -8 3 -5 6
6 6 11 1 17 -2 13 -5z m-301 -75 c3 -5 0 -18 -6 -29 -10 -19 -12 -19 -35 -4
-20 13 -22 19 -13 34 11 17 43 17 54 -1z m242 9 c14 -14 16 -42 3 -33 -5 3
-19 -9 -31 -25 -26 -37 -40 -32 -16 4 9 14 16 34 16 46 0 23 10 26 28 8z m52
-12 c0 -2 -8 -10 -17 -17 -16 -13 -17 -12 -4 4 13 16 21 21 21 13z m-330 -96
c0 -5 -7 -10 -15 -10 -8 0 -15 5 -15 10 0 6 7 10 15 10 8 0 15 -4 15 -10z
m-1654 -145 c15 -23 15 -27 0 -50 -30 -45 -86 -28 -86 27 0 49 59 65 86 23z
m135 6 c20 -16 22 -23 14 -47 -18 -52 -95 -42 -95 12 0 20 32 54 51 54 4 0 17
-9 30 -19z m149 -1 c24 -24 24 -29 4 -58 -29 -42 -84 -23 -84 30 0 45 46 62
80 28z m2001 -287 c-15 -90 -21 -178 -22 -289 0 -87 -4 -177 -9 -199 -6 -26
-8 36 -6 180 3 183 7 239 26 332 13 62 25 111 28 109 2 -2 -6 -62 -17 -133z
m799 -64 l0 -50 -37 3 c-35 3 -38 6 -38 33 0 23 5 31 23 33 12 2 22 10 22 18
0 8 7 14 15 14 11 0 15 -12 15 -51z m330 41 c0 -5 -4 -10 -10 -10 -5 0 -10 5
-10 10 0 6 5 10 10 10 6 0 10 -4 10 -10z m-255 -55 c0 -27 -3 -30 -30 -30 -21
0 -31 5 -33 18 -6 33 6 49 35 45 24 -3 28 -8 28 -33z m133 -2 c2 -19 -1 -33
-7 -33 -6 0 -11 12 -11 26 0 31 -23 28 -28 -4 -5 -30 -22 -28 -22 3 0 14 -4
25 -10 25 -5 0 -10 -11 -10 -25 0 -16 -6 -25 -15 -25 -15 0 -22 50 -8 63 3 4
29 6 57 4 50 -2 51 -3 54 -34z m80 -1 c3 -32 2 -33 -30 -30 -27 2 -32 7 -30
23 6 38 12 46 34 43 18 -2 24 -11 26 -36z m42 3 c0 -19 -4 -35 -10 -35 -5 0
-10 16 -10 35 0 19 5 35 10 35 6 0 10 -16 10 -35z m77 23 c18 -15 17 -58 -2
-58 -9 0 -15 9 -15 25 0 14 -4 25 -10 25 -5 0 -10 -11 -10 -25 0 -16 -6 -25
-15 -25 -10 0 -15 10 -15 28 0 16 2 31 5 33 9 10 50 8 62 -3z m-502 -48 c3 -5
-1 -10 -10 -10 -9 0 -13 5 -10 10 3 6 8 10 10 10 2 0 7 -4 10 -10z m-227 -7
c-43 -2 -113 -2 -155 0 -43 1 -8 3 77 3 85 0 120 -2 78 -3z m-475 -268 c-7
-21 -13 -19 -13 6 0 11 4 18 10 14 5 -3 7 -12 3 -20z m24 -157 c-20 -13 -27
-9 -27 12 0 18 3 19 20 8 14 -9 16 -14 7 -20z m23 -75 c0 -13 -5 -10 -20 12
-26 39 -26 55 0 27 11 -12 20 -29 20 -39z m144 -28 c-4 -8 -8 -15 -10 -15 -2
0 -4 7 -4 15 0 8 4 15 10 15 5 0 7 -7 4 -15z m126 -2023 c0 -15 -2 -15 -10 -2
-13 20 -13 33 0 25 6 -3 10 -14 10 -23z m-6 -78 c20 -8 21 -44 2 -44 -7 0 -19
-7 -26 -15 -7 -8 -20 -15 -29 -15 -9 0 -21 -8 -28 -18 -15 -25 -53 -21 -72 8
-15 23 -15 24 4 16 35 -15 66 -15 71 -1 3 8 12 11 21 8 18 -7 33 13 33 45 0
24 1 25 24 16z m-990 -109 c6 -16 9 -17 16 -5 7 11 11 9 19 -12 6 -15 19 -36
31 -48 l20 -20 9 22 c8 22 8 22 15 2 11 -35 62 -20 94 28 24 37 26 38 34 19 8
-23 28 -29 29 -8 0 6 5 1 10 -12 6 -15 15 -21 24 -17 8 3 15 1 15 -4 0 -6 4
-10 10 -10 5 0 12 17 15 38 15 88 37 115 42 50 2 -23 -1 -38 -8 -38 -7 0 -9
-16 -4 -50 7 -53 1 -60 -31 -35 -25 19 -38 19 -30 0 7 -18 -5 -20 -22 -3 -9 9
-12 9 -12 -3 -1 -8 -10 -3 -24 15 -24 28 -46 28 -46 0 0 -23 -27 -47 -34 -31
-3 7 -7 3 -11 -10 -7 -22 -7 -22 -30 5 -23 27 -24 27 -39 7 -16 -20 -16 -20
-22 3 -5 17 -9 20 -15 11 -10 -17 7 -49 26 -49 35 0 12 -30 -35 -45 -27 -9
-54 -24 -59 -32 -11 -21 -17 -9 -30 59 -12 67 -5 128 16 128 8 0 13 7 11 18
-2 9 -9 17 -16 17 -6 0 -12 2 -12 5 -1 3 -5 23 -10 44 -5 22 -6 44 -3 49 5 8
41 -47 57 -88z m802 63 c10 -12 14 -18 8 -15 -7 4 -25 0 -40 -8 -25 -12 -30
-13 -37 0 -4 8 -13 12 -21 9 -7 -3 -18 1 -24 8 -8 10 -1 13 34 11 24 0 47 3
50 8 7 12 8 12 30 -13z m-99 -76 c-6 -34 10 -69 36 -76 26 -6 37 0 37 22 0 15
2 15 10 2 15 -23 12 -38 -11 -51 -19 -10 -27 -6 -65 32 -46 45 -51 58 -33 90
14 26 32 13 26 -19z m137 -79 c3 -4 14 -8 24 -9 30 -5 47 -10 65 -20 16 -9 14
-11 -13 -12 -20 0 -48 9 -69 24 -20 13 -31 24 -25 24 6 0 14 -3 18 -7z m156 4
c0 -2 -9 -12 -20 -22 -24 -21 -27 -14 -4 9 15 15 24 20 24 13z m-248 -55 c14
-13 29 -24 32 -23 3 1 17 1 31 1 22 0 24 -2 15 -26 -7 -16 -7 -23 0 -19 6 3
10 2 10 -4 0 -6 6 -8 14 -5 18 7 28 -9 20 -30 -4 -11 -13 -15 -28 -11 -17 5
-18 4 -6 -4 13 -10 13 -11 0 -12 -8 0 -4 -4 9 -8 33 -9 39 -31 10 -38 l-23 -6
22 -8 c24 -9 29 -38 10 -57 -9 -9 -9 -12 0 -12 18 0 14 -40 -5 -47 -14 -5 -13
-8 5 -14 15 -6 22 -17 22 -34 0 -14 5 -25 10 -25 6 0 10 6 10 14 0 9 8 12 26
8 24 -4 26 -8 20 -41 -3 -20 -10 -37 -15 -39 -6 -2 -8 -9 -5 -17 6 -14 0 -17
-95 -36 l-65 -12 -32 37 c-38 44 -50 100 -36 164 l10 42 -199 0 c-184 0 -221
-5 -188 -26 8 -4 7 -9 -2 -15 -9 -6 -2 -7 18 -3 31 6 32 6 39 -42 4 -28 3 -60
-4 -76 -6 -16 -6 -28 -1 -28 5 0 9 -7 9 -16 0 -8 -4 -13 -8 -10 -5 3 -15 -7
-23 -22 -7 -15 -22 -37 -32 -49 -11 -12 -17 -26 -13 -31 3 -5 -4 -18 -14 -30
-24 -25 -26 -47 -5 -38 18 7 20 -25 4 -56 -8 -15 -8 -19 1 -13 7 4 6 -5 -4
-23 -22 -43 -64 -55 -92 -27 -16 16 -49 21 -40 6 7 -11 -28 -21 -73 -21 -48 0
-71 24 -71 74 0 38 29 102 53 117 9 7 41 129 56 219 4 25 13 59 21 77 16 36
-5 31 260 53 124 9 278 35 292 49 4 4 -5 24 -20 45 -22 31 -27 49 -26 92 1 32
9 64 18 80 19 28 21 27 78 -24z m-472 -95 c0 -7 -18 -25 -40 -40 -22 -14 -40
-22 -40 -16 0 14 -26 11 -39 -5 -8 -9 -29 -13 -73 -10 -68 4 -88 15 -68 39 16
20 196 23 184 3 -5 -7 8 -1 27 14 39 31 49 34 49 15z m-300 -29 c0 -10 2 -10
8 -1 4 7 9 -10 10 -37 2 -40 -1 -48 -13 -44 -8 4 -16 14 -16 23 -1 9 -3 28 -5
44 -1 15 1 27 7 27 5 0 9 -6 9 -12z m219 -47 c6 -10 7 -21 4 -25 -11 -10 -75
-7 -68 4 4 6 10 8 15 5 4 -3 10 4 13 15 6 25 23 26 36 1z m711 -11 c0 -5 -5
-10 -11 -10 -5 0 -7 5 -4 10 3 6 8 10 11 10 2 0 4 -4 4 -10z m10 -64 c0 -3 -4
-8 -10 -11 -5 -3 -10 -1 -10 4 0 6 5 11 10 11 6 0 10 -2 10 -4z m27 -58 c-3
-8 -6 -5 -6 6 -1 11 2 17 5 13 3 -3 4 -12 1 -19z m-553 -212 c-6 -16 -24 -23
-24 -8 0 10 22 33 27 28 2 -2 1 -11 -3 -20z"/>
<path d="M528 4119 c-22 -12 -23 -42 -2 -60 31 -26 70 25 44 56 -14 17 -19 18
-42 4z"/>
<path d="M659 4104 c-16 -20 -1 -48 29 -52 27 -4 49 33 31 54 -15 19 -43 18
-60 -2z"/>
<path d="M803 4104 c-9 -24 10 -49 38 -49 20 0 24 5 24 30 0 25 -4 30 -28 33
-18 2 -29 -2 -34 -14z"/>
<path d="M3612 3754 c4 -21 22 -23 26 -1 2 10 -3 17 -13 17 -10 0 -15 -6 -13
-16z"/>
<path d="M3702 3754 c4 -21 22 -23 26 -1 2 10 -3 17 -13 17 -10 0 -15 -6 -13
-16z"/>
<path d="M3918 3763 c7 -3 16 -2 19 1 4 3 -2 6 -13 5 -11 0 -14 -3 -6 -6z"/>
<path d="M3920 3739 c0 -5 5 -7 10 -4 6 3 10 8 10 11 0 2 -4 4 -10 4 -5 0 -10
-5 -10 -11z"/>
<path d="M2875 629 c-16 -5 -64 -16 -105 -23 l-75 -14 108 -1 107 -1 0 25 c0
14 -1 25 -2 24 -2 0 -16 -5 -33 -10z"/>
<path d="M2480 529 c0 -5 5 -7 10 -4 6 3 10 8 10 11 0 2 -4 4 -10 4 -5 0 -10
-5 -10 -11z"/>
<path d="M2521 511 c-9 -6 -10 -11 -2 -15 13 -8 31 1 31 15 0 11 -11 11 -29 0z"/>
<path d="M2450 260 c0 -5 5 -10 10 -10 6 0 10 5 10 10 0 6 -4 10 -10 10 -5 0
-10 -4 -10 -10z"/>
<path d="M2430 208 c0 -4 7 -8 15 -8 8 0 15 4 15 8 0 5 -7 9 -15 9 -8 0 -15
-4 -15 -9z"/>
<path d="M1317 4012 c-15 -16 -17 -46 -17 -216 0 -117 4 -205 10 -217 10 -18
24 -19 265 -19 l255 0 0 28 c0 15 6 51 13 79 l14 52 -71 4 -71 3 72 2 73 2 21
48 c41 91 77 138 128 166 48 26 49 28 39 56 l-10 30 -352 0 c-329 0 -354 -1
-369 -18z m255 -109 c10 -9 18 -28 18 -42 0 -16 8 -31 20 -39 19 -11 20 -21
18 -95 l-3 -82 -95 0 -95 0 -3 79 c-2 57 1 83 11 95 8 9 18 27 22 41 17 57 68
78 107 43z"/>
<path d="M1497 3892 c-10 -10 -17 -28 -17 -40 0 -20 5 -22 50 -22 46 0 50 2
50 24 0 24 -32 56 -56 56 -6 0 -18 -8 -27 -18z"/>
<path d="M1442 3733 l3 -78 85 0 85 0 0 75 0 75 -88 3 -88 3 3 -78z m98 -18
c0 -8 -4 -17 -10 -20 -6 -4 -10 5 -10 20 0 15 4 24 10 20 6 -3 10 -12 10 -20z"/>
<path d="M2049 3933 c-22 -25 -33 -56 -16 -46 6 4 4 -5 -6 -20 -20 -31 -31
-87 -17 -87 10 0 7 -67 -5 -94 -7 -16 -6 -17 13 -7 24 13 65 62 57 69 -2 3
-12 -1 -22 -9 -9 -8 -2 5 16 28 36 46 37 74 4 161 -8 22 -10 22 -24 5z"/>
<path d="M35 3755 l-25 -24 0 -1546 c0 -871 4 -1545 9 -1545 5 0 104 167 222
370 l213 370 98 0 c54 0 98 3 98 8 1 35 34 150 55 192 31 61 112 150 164 182
20 12 37 22 39 24 2 1 -7 48 -19 105 -18 83 -22 140 -23 284 -1 99 2 206 7
238 l7 57 -98 0 c-63 0 -102 4 -110 12 -17 17 -17 509 0 526 9 9 69 12 209 12
l196 0 38 61 c84 137 220 287 358 397 l76 60 -115 4 c-145 4 -144 3 -144 140
l0 98 -615 0 -616 0 -24 -25z m211 -130 c15 -23 15 -27 0 -50 -30 -45 -86 -28
-86 27 0 49 59 65 86 23z m135 6 c20 -16 22 -23 14 -47 -18 -52 -95 -42 -95
12 0 20 32 54 51 54 4 0 17 -9 30 -19z m149 -1 c24 -24 24 -29 4 -58 -29 -42
-84 -23 -84 30 0 45 46 62 80 28z"/>
<path d="M188 3629 c-22 -12 -23 -42 -2 -60 31 -26 70 25 44 56 -14 17 -19 18
-42 4z"/>
<path d="M319 3614 c-16 -20 -1 -48 29 -52 27 -4 49 33 31 54 -15 19 -43 18
-60 -2z"/>
<path d="M463 3614 c-9 -24 10 -49 38 -49 20 0 24 5 24 30 0 25 -4 30 -28 33
-18 2 -29 -2 -34 -14z"/>
<path d="M4210 3682 c0 -148 35 -136 -416 -142 l-374 -5 69 -53 c102 -78 257
-244 335 -359 68 -101 69 -102 117 -108 69 -10 157 -55 211 -109 54 -53 104
-147 114 -212 l6 -45 150 3 149 3 225 545 c123 300 224 550 224 556 0 7 -7 15
-16 18 -9 3 -191 6 -405 6 l-389 0 0 -98z"/>
<path d="M681 2996 c-8 -9 -11 -87 -9 -262 l3 -249 304 -3 c237 -2 306 1 313
10 13 22 10 492 -4 506 -19 19 -591 17 -607 -2z m386 -188 c13 -12 23 -29 23
-38 0 -13 6 -16 23 -13 18 4 31 -4 51 -27 40 -49 32 -64 -37 -68 -65 -3 -76
11 -24 33 19 9 25 14 14 15 -10 0 -20 7 -24 16 -5 15 -7 15 -15 0 -5 -9 -16
-16 -25 -16 -13 0 -14 -3 -5 -12 7 -7 12 -20 12 -30 0 -17 -10 -18 -137 -16
-152 3 -163 9 -116 57 15 16 33 37 39 47 6 11 22 21 35 22 13 2 35 14 49 27
14 12 32 25 40 28 25 10 73 -2 97 -25z"/>
<path d="M3794 3000 c-112 -24 -215 -108 -267 -218 -29 -60 -32 -76 -32 -157
1 -80 4 -98 32 -157 40 -85 105 -151 191 -191 60 -29 76 -32 157 -32 80 1 98
4 157 32 85 40 151 105 191 191 29 60 32 76 32 157 -1 80 -4 98 -32 157 -77
163 -257 255 -429 218z m136 -143 c0 -13 -6 -29 -12 -37 -7 -8 -3 -6 10 4 26
22 30 11 5 -16 -13 -14 -13 -18 -2 -13 9 3 29 -10 52 -33 l37 -38 -81 -79 -81
-80 4 37 c4 35 3 37 -14 21 -23 -21 -23 -6 0 20 9 11 11 17 4 13 -9 -6 -27 5
-53 30 l-39 38 77 78 c43 43 81 78 85 78 5 0 8 -10 8 -23z m-30 -364 c0 -3 -7
-3 -15 0 -23 10 -28 -11 -5 -25 24 -15 26 -43 4 -52 -23 -9 -34 -7 -34 4 0 5
7 7 15 4 9 -4 15 0 15 9 0 8 -7 17 -15 21 -18 7 -20 43 -2 49 13 4 37 -2 37
-10z m-260 -28 c0 -22 6 -38 18 -45 15 -9 14 -10 -8 -8 -22 3 -25 9 -28 46 -2
25 1 42 7 42 6 0 11 -16 11 -35z m60 -11 c0 -27 -4 -43 -10 -39 -5 3 -10 24
-10 46 0 21 5 39 10 39 6 0 10 -21 10 -46z m62 6 c-5 -53 -22 -62 -22 -11 0
22 -5 42 -12 44 -7 3 -2 6 12 6 24 1 25 -2 22 -39z m61 33 c-7 -2 -13 -11 -13
-19 0 -8 6 -14 13 -15 10 0 10 -2 0 -6 -7 -2 -13 -11 -13 -18 0 -7 6 -16 13
-18 6 -3 2 -6 -10 -6 -21 -1 -23 4 -23 44 0 40 2 45 23 44 12 0 16 -3 10 -6z
m137 -13 c0 -11 -7 -23 -15 -26 -8 -4 -15 -12 -15 -19 0 -8 -4 -17 -10 -20 -6
-4 -10 12 -10 39 0 42 2 46 25 46 18 0 25 -5 25 -20z m48 13 c-20 -5 -24 -33
-5 -34 10 0 10 -2 0 -6 -7 -2 -13 -11 -13 -18 0 -7 6 -16 13 -19 6 -3 3 -5 -8
-3 -16 2 -21 11 -23 45 -3 40 -2 42 25 41 17 -1 21 -3 11 -6z m55 0 c-7 -2
-13 -11 -13 -19 0 -8 6 -14 13 -15 10 0 10 -2 0 -6 -7 -2 -13 -11 -13 -18 0
-7 6 -16 13 -18 6 -3 2 -6 -10 -6 -21 -1 -23 4 -23 44 0 40 2 45 23 44 12 0
16 -3 10 -6z m85 -5 c19 -19 14 -46 -13 -64 -37 -24 -55 -12 -55 36 0 37 2 40
28 40 15 0 33 -5 40 -12z"/>
<path d="M3897 2764 c-3 -3 1 -17 10 -31 11 -17 19 -21 27 -13 7 7 4 16 -10
30 -11 11 -23 18 -27 14z"/>
<path d="M3843 2743 c0 -22 33 -67 41 -55 4 6 -31 72 -38 72 -2 0 -3 -8 -3
-17z"/>
<path d="M3930 2474 c0 -8 5 -12 10 -9 6 4 8 11 5 16 -9 14 -15 11 -15 -7z"/>
<path d="M4100 2455 c0 -37 10 -44 30 -20 14 17 4 55 -16 55 -9 0 -14 -11 -14
-35z"/>
<path d="M2101 2824 c0 -11 3 -14 6 -6 3 7 2 16 -1 19 -3 4 -6 -2 -5 -13z"/>
<path d="M2915 2748 c4 -29 14 -64 22 -78 10 -19 13 -20 9 -5 -3 11 -10 46
-16 78 -14 71 -24 75 -15 5z"/>
<path d="M2976 2542 c-2 -4 -1 -14 5 -22 7 -13 9 -12 9 2 0 9 6 19 13 21 7 3
6 6 -5 6 -9 1 -19 -3 -22 -7z"/>
<path d="M995 1806 c-130 -43 -222 -122 -282 -243 -37 -76 -38 -79 -38 -192 0
-113 1 -118 36 -192 47 -98 115 -166 216 -216 76 -37 79 -38 192 -38 113 0
118 1 192 36 98 47 166 115 216 216 37 76 38 79 38 192 0 113 -1 118 -36 192
-47 98 -115 166 -215 216 -72 35 -84 38 -178 40 -64 2 -116 -2 -141 -11z m289
-95 c76 -37 147 -110 184 -189 23 -49 27 -70 27 -152 0 -82 -4 -103 -27 -152
-37 -80 -107 -151 -187 -191 -60 -29 -74 -32 -161 -32 -82 0 -103 4 -152 27
-80 37 -151 107 -191 187 -29 60 -32 74 -32 161 0 81 4 103 27 152 46 100 137
180 241 214 27 9 71 13 125 10 68 -3 95 -10 146 -35z"/>
<path d="M1003 1710 c-128 -42 -229 -175 -241 -316 -15 -192 136 -366 334
-382 192 -15 366 136 382 334 20 250 -232 443 -475 364z m245 -40 c24 -11 54
-28 67 -38 l24 -19 -24 -11 c-39 -18 -41 -52 -6 -117 17 -32 31 -73 31 -92 0
-42 -51 -216 -61 -206 -14 16 -110 323 -104 333 3 5 13 10 21 10 8 0 14 5 14
10 0 6 -38 10 -95 10 -95 0 -114 -7 -73 -25 14 -7 30 -33 46 -75 l24 -65 -33
-102 c-18 -57 -36 -103 -39 -103 -6 0 -114 317 -115 335 0 6 10 11 23 13 45 7
20 21 -40 24 l-63 3 42 42 c46 46 101 78 160 93 51 12 149 3 201 -20z m192
-237 c14 -66 2 -150 -30 -213 -24 -47 -112 -138 -118 -122 -2 6 22 84 53 174
31 90 57 182 58 205 2 36 4 40 14 27 7 -9 17 -41 23 -71z m-536 -148 c40 -110
72 -202 70 -204 -7 -8 -84 52 -109 85 -50 65 -69 123 -68 204 0 68 20 149 29
125 3 -5 37 -100 78 -210z m287 -117 l38 -108 -27 -7 c-30 -9 -160 -8 -169 0
-3 3 16 70 43 149 l47 143 15 -35 c8 -19 32 -83 53 -142z"/>
<path d="M3635 1680 c-3 -5 63 -61 147 -124 131 -98 155 -113 170 -103 174
121 298 215 298 225 0 15 -605 18 -615 2z"/>
<path d="M3632 1478 l3 -173 304 -3 c237 -2 306 1 313 10 9 15 11 338 2 338
-3 0 -75 -50 -160 -111 -85 -61 -160 -109 -167 -106 -7 2 -70 49 -142 104 -71
54 -136 102 -143 107 -10 6 -12 -27 -10 -166z"/>
</g>
</svg>
