<svg fill="none" height="42" viewBox="0 0 42 42" width="42" xmlns="http://www.w3.org/2000/svg"><path d="m42 21c0-11.59798-9.402-21-21-21-11.59798 0-21 9.40202-21 21 0 11.598 9.40202 21 21 21 11.598 0 21-9.402 21-21z" fill="#fafbff"/><g fill="#673de6"><path d="m13 12c-1.1 0-2 .9-2 2v12l3-3h3v3c0 1.1.9 2 2 2h9l3 3v-12c0-1.1-.9-2-2-2h-4v-3c0-1.1-.9-2-2-2zm0 2h10v7h-10zm12 5h4v7h-10v-3h4c1.1 0 2-.9 2-2z"/><path clip-rule="evenodd" d="m13 12c-1.1 0-2 .9-2 2v12l3-3h1 2 2 4c1.1 0 2-.9 2-2v-2-2-3c0-1.1-.9-2-2-2zm0 2h10v7h-10z" fill-rule="evenodd"/></g></svg>