<svg fill="none" height="42" viewBox="0 0 42 42" width="42" xmlns="http://www.w3.org/2000/svg"><path d="m42 21c0-11.59798-9.402-21-21-21-11.59798 0-21 9.40202-21 21 0 11.598 9.40202 21 21 21 11.598 0 21-9.402 21-21z" fill="#fafbff"/><g fill="#673de6"><path d="m17.8004 32.3-1.4-3.3h-3.5l3-5.2 1.7 1-1.3 2.2c.7 0 1.4.4 1.7 1l2-3.4 1.7 1z"/><path d="m24.0996 32.3-4-6.6 1.7-1 2 3.4c.4-.6 1-1 1.7-1l-1.3-2.2 1.7-1 3 5.2h-3.5z"/><path d="m21.0004 26.8c-1 0-1.8-.6-2.2-1.6 0-.1-.1-.1-.2-.2-.1 0-.1 0-.2 0-.8.5-1.9.5-2.7-.2-.8-.6-1-1.7-.6-2.6 0-.1 0-.2 0-.2 0 .1 0 0-.1 0-1-.1-1.7-.9-1.9-1.8s.3-1.9 1.2-2.4c.1-.1.1-.1.1-.2 0 0 0-.1-.1-.2-.7-.8-.8-1.8-.3-2.7s1.5-1.3 2.4-1.1c.1 0 .2 0 .2-.1 0 0 .1-.1.1-.2 0-1 .5-1.9 1.5-2.2.9-.3 1.9-.1 2.6.7.1.2.3.2.4 0 .6-.8 1.6-1.1 2.6-.7.9.3 1.5 1.2 1.5 2.2 0 .1 0 .2.1.2s.1.1.2.1c1-.2 1.9.2 2.4 1.1s.4 1.9-.3 2.6c-.1.1-.1.2-.1.2 0 .1 0 .1.1.2.9.5 1.3 1.4 1.2 2.4s-.9 1.8-1.8 1.9c-.1 0-.2.1-.2.1 0 .1-.1.1 0 .2.4.9.1 1.9-.6 2.6-.8.6-1.8.7-2.7.2-.1-.1-.2 0-.2 0s-.1.1-.2.2c-.4.9-1.2 1.5-2.2 1.5zm-2.4-3.7c.3 0 .5 0 .8.1.7.2 1.2.8 1.4 1.4.1.2.4.2.5 0 .2-.7.7-1.2 1.4-1.4s1.4-.2 2 .2c.1.1.2.1.3 0s.1-.2.1-.3c-.3-.6-.2-1.4.1-2 .4-.6 1-1 1.6-1.1.1 0 .2-.1.2-.2s0-.2-.1-.3c-.6-.3-1-.9-1.2-1.6-.1-.7.1-1.4.5-1.9.1-.1.1-.2 0-.3s-.2-.2-.3-.1c-.7.1-1.4 0-1.9-.5s-.8-1.1-.8-1.8c0-.1-.1-.2-.2-.3-.1 0-.2 0-.3.1-.9 1.1-2.7 1.1-3.6 0 0-.1-.1-.1-.2-.1s-.2.1-.2.3c0 .7-.3 1.4-.8 1.8s-1.2.6-1.9.5c-.1 0-.2 0-.3.1 0 .1 0 .2.1.3.5.5.7 1.2.6 1.9s-.5 1.3-1.2 1.6c-.2.1-.2.2-.2.3s.1.2.2.2c.7.1 1.3.5 1.7 1.1s.4 1.3.1 2c0 .1 0 .2.1.3s.2.1.3 0c.4-.2.8-.3 1.2-.3z"/><path d="m17.8008 18.9 2.7 2.7 3.7-3.7-1.4-1.4-2.3 2.3-1.3-1.3z"/></g></svg>