<svg fill="none" height="42" viewBox="0 0 42 42" width="42" xmlns="http://www.w3.org/2000/svg"><path d="m42 21c0-11.59798-9.402-21-21-21-11.59798 0-21 9.40202-21 21 0 11.598 9.40202 21 21 21 11.598 0 21-9.402 21-21z" fill="#fafbff"/><g fill="#673de6"><path d="m12 13c-.552 0-1 .448-1 1v2c0 .552.448 1 1 1h18c.552 0 1-.448 1-1v-2c0-.552-.448-1-1-1zm2 1c.552 0 1 .448 1 1s-.448 1-1 1-1-.448-1-1 .448-1 1-1zm-2 11c-.552 0-1 .448-1 1v2c0 .552.448 1 1 1h18c.552 0 1-.448 1-1v-2c0-.552-.448-1-1-1zm2 1c.552 0 1 .448 1 1s-.448 1-1 1-1-.448-1-1 .448-1 1-1z"/><path clip-rule="evenodd" d="m12 19c-.552 0-1 .448-1 1v2c0 .552.448 1 1 1h18c.552 0 1-.448 1-1v-2c0-.552-.448-1-1-1zm2 1c.552 0 1 .448 1 1s-.448 1-1 1-1-.448-1-1 .448-1 1-1z" fill-rule="evenodd"/></g></svg>