<svg fill="none" height="42" viewBox="0 0 42 42" width="42" xmlns="http://www.w3.org/2000/svg"><path d="m42 21c0-11.59798-9.402-21-21-21-11.59798 0-21 9.40202-21 21 0 11.598 9.40202 21 21 21 11.598 0 21-9.402 21-21z" fill="#fafbff"/><g fill="#673de6"><path d="m11 15v14c0 1.1.9 2 2 2h14v-2h-14v-14z"/><path clip-rule="evenodd" d="m17 11c-1.105 0-2 .895-2 2v12c0 1.105.895 2 2 2h12c1.105 0 2-.895 2-2v-12c0-1.105-.895-2-2-2h-4-6zm-.0001 1.9999h2v8l3-1.5 3 1.5v-8h4v12h-12zm4 0h2v4.7637l-.1055-.0527-.8945-.4473-.8945.4473-.1055.0527z" fill-rule="evenodd"/></g></svg>