<svg fill="none" height="42" viewBox="0 0 42 42" width="42" xmlns="http://www.w3.org/2000/svg"><path d="m42 21c0-11.59798-9.402-21-21-21-11.59798 0-21 9.40202-21 21 0 11.598 9.40202 21 21 21 11.598 0 21-9.402 21-21z" fill="#fafbff"/><path d="m30.7125 21.3811-2.7982-.6727-.4574-.1883-12.8339.1076v6.1883l16.1164.0269z" fill="#fff"/><g fill="#673de6"><path d="m25.493 26.251c.1346-.5112.0808-.9686-.1614-1.3184-.2152-.3229-.5919-.5112-1.0493-.5112l-8.6636-.1076c-.0538 0-.1076-.0269-.1345-.0807s-.0269-.1077-.0269-.1615c.0269-.0807.1076-.1614.1883-.1614l8.7443-.1076c1.0493-.0538 2.1525-.8879 2.556-1.9103l.5112-1.2915c.0269-.0538.0269-.1076.0269-.1614-.565-2.556-2.825-4.4394-5.5425-4.4394-2.5022 0-4.6277 1.6143-5.3811 3.8475-.4843-.3767-1.13-.565-1.8026-.4843-1.2108.1076-2.1525 1.0762-2.287 2.2869-.0269.3229 0 .6189.0538.8879-1.9641.0538-3.5246 1.6682-3.5246 3.6323 0 .1883.02691.3497.02691.5381 0 .0807.08071.1345.16143.1345h15.98186c.0807 0 .1883-.0538.2152-.1614z"/><path d="m28.2373 20.6815c-.0807 0-.1614 0-.2421 0-.0538 0-.1076.0538-.1346.1076l-.3497 1.1839c-.1346.5112-.0807.9686.1614 1.3183.2153.3229.5919.5113 1.0493.5113l1.8565.1076c.0538 0 .1076.0269.1345.0807s.0269.1076.0269.1614c-.0269.0807-.1076.1615-.1883.1615l-1.9103.1076c-1.0493.0538-2.1524.8879-2.556 1.9103l-.1345.3497c-.0269.0538.0269.1346.1076.1346h6.5918c.0807 0 .1614-.0538.1614-.1346.1077-.4035.1884-.834.1884-1.2914-.0269-2.583-2.1524-4.7085-4.7623-4.7085z"/></g></svg>