<svg fill="none" height="42" viewBox="0 0 42 42" width="42" xmlns="http://www.w3.org/2000/svg"><path d="m42 21c0-11.59798-9.402-21-21-21-11.59798 0-21 9.40202-21 21 0 11.598 9.40202 21 21 21 11.598 0 21-9.402 21-21z" fill="#fafbff"/><g fill="#673de6"><path d="m31 12-5.3008.8008 1.543 1.543-3.0645 3.0644-1.6093-1.5078-4.0762 4.1777-1.4844-1.4843-4.7051 4.6093 1.4004 1.4278 3.2891-3.2247 1.5156 1.5157 4.1231-4.2227 1.5918 1.4922 4.4335-4.4336 1.543 1.543zm-3 8v11h2v-11zm-4 2v9h2v-9zm-4 2v7h2v-7zm-4 2v5h2v-5zm-4 2v3h2v-3z"/><path d="m28 20v11h2v-11zm-4 2v9h2v-9zm-4 2v7h2v-7zm-4 2v5h2v-5zm-4 2v3h2v-3z"/></g></svg>