<svg fill="none" height="42" viewBox="0 0 42 42" width="42" xmlns="http://www.w3.org/2000/svg"><path d="m42 21c0-11.59798-9.402-21-21-21-11.59798 0-21 9.40202-21 21 0 11.598 9.40202 21 21 21 11.598 0 21-9.402 21-21z" fill="#fafbff"/><g fill="#673de6"><path d="m13 12c-1.105 0-2 .895-2 2v14c0 1.105.895 2 2 2h8.5488c-.117-.304-.22-.6222-.3027-.9551-.0828-.3329-.1465-.6804-.1875-1.0449h-8.0586v-8h14 1 1v-6c0-1.105-.895-2-2-2zm0 2h14v4h-14zm2 1c-.2652 0-.5196.1054-.7071.2929s-.2929.4419-.2929.7071.1054.5196.2929.7071.4419.2929.7071.2929.5196-.1054.7071-.2929.2929-.4419.2929-.7071-.1054-.5196-.2929-.7071-.4419-.2929-.7071-.2929zm3 0c-.2652 0-.5196.1054-.7071.2929s-.2929.4419-.2929.7071.1054.5196.2929.7071.4419.2929.7071.2929.5196-.1054.7071-.2929.2929-.4419.2929-.7071-.1054-.5196-.2929-.7071-.4419-.2929-.7071-.2929zm3 0v2h4v-2z"/><path d="m23 24 4.5-2 4.5 2v3c0 3.915-3.22 5.743-4.5 6-1.28-.257-4.5-2.085-4.5-6z"/></g></svg>