<svg fill="none" height="42" viewBox="0 0 42 42" width="42" xmlns="http://www.w3.org/2000/svg"><path d="m42 21c0-11.59798-9.402-21-21-21-11.59798 0-21 9.40202-21 21 0 11.598 9.40202 21 21 21 11.598 0 21-9.402 21-21z" fill="#fafbff"/><g fill="#673de6"><path d="m29.3476 12.0106c-.1397-.0153-.2842-.0145-.4297.0058-2.1711.3052-7.2154 1.1384-12.2188 6.9824h-2.6425l-2.6758 2.7852c-.372.372-.4833.9271-.2813 1.4141.201.487.6722.8007 1.1992.8007h2.2696l.1035.1035c-.2732.3445-.4277.7089-.582 1.1094-.1881.4879-.3446 1.0191-.4746 1.5196-.2601 1.0008-.4141 1.8925-.4141 1.8925l-.2481 1.4043 1.4043-.248s.8918-.1541 1.8926-.4141c.5004-.13 1.0317-.2865 1.5196-.4746.4005-.1543.7648-.3088 1.1093-.582l.1035.1035v2.2695c0 .527.3138.9992.8008 1.1992.165.069.3369.0997.5059.0997.331 0 .651-.1227.875-.3477l2.8183-2.5684v-2.7832c5.8441-5.0033 6.6773-10.0476 6.9825-12.2187.1425-1.0185-.6395-1.9458-1.6172-2.0527zm-.4121 2.0351c-.3572 2.5432-1.1624 7.535-8.8282 12.6641l-3.8359-3.836c5.1291-7.6658 10.1209-8.4709 12.6641-8.8281zm-12.8047 11.5156 1.289 1.2891c-.107.0566-.222.1183-.3711.1758-.3748.1445-.848.2842-1.3027.4023-.13.0338-.1236.0248-.248.0547.0299-.1244.0209-.118.0547-.248.1181-.4547.2578-.9279.4023-1.3028.0575-.149.1191-.264.1758-.3711z"/><path d="m23.2753 18.2917c.1876-.1876.4419-.2929.7071-.2929s.5196.1053.7071.2929c.1876.1875.2929.4419.2929.7071s-.1053.5195-.2929.7071c-.1875.1875-.4419.2929-.7071.2929s-.5195-.1054-.7071-.2929c-.1875-.1876-.2929-.4419-.2929-.7071s.1054-.5196.2929-.7071z"/><path d="m20.2753 21.2917c.1876-.1876.4419-.2929.7071-.2929s.5196.1053.7071.2929c.1876.1875.2929.4419.2929.7071s-.1053.5195-.2929.7071c-.1875.1875-.4419.2929-.7071.2929s-.5195-.1054-.7071-.2929c-.1875-.1876-.2929-.4419-.2929-.7071s.1054-.5196.2929-.7071z"/></g></svg>