<svg fill="none" height="42" viewBox="0 0 42 42" width="42" xmlns="http://www.w3.org/2000/svg"><path d="m42 21c0-11.59798-9.402-21-21-21-11.59798 0-21 9.40202-21 21 0 11.598 9.40202 21 21 21 11.598 0 21-9.402 21-21z" fill="#fafbff"/><path d="m20.9292 12c-4.9271 0-8.9292 4.0031-8.9292 8.9292 0 4.9271 4.0031 8.9302 8.9292 8.9302 4.9271 0 8.9302-4.0031 8.9302-8.9302s-4.0031-8.9292-8.9302-8.9292zm5.0073 3.2896c.7115.6319 1.2993 1.3906 1.7333 2.2375.0156.1719.0312.3333.0312.5146 0 .7791-.1437 1.6531-.5833 2.7479l-2.2812 6.5958c-.448.2717-.9227.4965-1.4167.6709v-.0053l-2.3573-6.4572-2.2594 6.5791c-.4401-.1288-.8676-.2975-1.2771-.5041l-3.5416-9.7136c.1875-.4292.4073-.8427.6708-1.2344.1281.0052.2573.0104.3646.0104.8 0 2.0448-.0958 2.0448-.0958.4135-.0271.4614.5792.0479.6271 0 0-.4125.049-.875.076l2.7854 8.2959 1.6802-5.0281-1.1916-3.274c-.4188-.0208-.8052-.0698-.8052-.0698-.4188-.026-.3646-.6542.0437-.6271 0 0 1.2656.0958 2.0177.0958.8042 0 2.0386-.0958 2.0386-.0958.4187-.0271.4677.5792.0541.6271 0 0-.4187.049-.8802.076l2.7688 8.2323.7677-2.5552c.3864-.9927.5854-1.8187.5854-2.4739 0-.9438-.3386-1.6042-.6333-2.1146-.3865-.6271-.7573-1.1646-.7573-1.7917 0-.6875.5104-1.3094 1.2239-1.3469z" fill="#673de6"/></svg>