<svg fill="none" height="42" viewBox="0 0 42 42" width="42" xmlns="http://www.w3.org/2000/svg"><path d="m42 21c0-11.59798-9.402-21-21-21-11.59798 0-21 9.40202-21 21 0 11.598 9.40202 21 21 21 11.598 0 21-9.402 21-21z" fill="#fafbff"/><g fill="#673de6"><path d="m12 14c-1.0931 0-2 .9069-2 2v11c0 1.0931.9069 2 2 2h18c1.0931 0 2-.9069 2-2v-11c0-1.0931-.9069-2-2-2zm0 2h18v11h-18z"/><path d="m16 19v5h1v-2h.5c.828 0 1.5-.672 1.5-1.5s-.672-1.5-1.5-1.5zm4 0v2 1 2h1v-2h1v2h1v-2-1-2h-1v2h-1v-2zm4 0v5h1v-2h.5c.828 0 1.5-.672 1.5-1.5s-.672-1.5-1.5-1.5zm-7 1h.5c.276 0 .5.224.5.5s-.224.5-.5.5h-.5zm8 0h.5c.276 0 .5.224.5.5s-.224.5-.5.5h-.5z"/></g></svg>