<svg fill="none" height="24" viewBox="0 0 24 24" width="24" xmlns="http://www.w3.org/2000/svg"><path clip-rule="evenodd" d="m11.9403 1.67326c2.6782 0 5.1167 1.02632 6.9447 2.70666-.8959-.02404-1.79.50853-1.827 1.72809-.0754 2.46547 2.9481 2.99065 1.3189 7.94979l-1.3476 4.102-3.6702-10.81142c-.0569-.16736.0092-.26259.2149-.26259h1.0377c.0539 0 .098-.04605.098-.10244v-.61459c0-.05637-.0442-.10474-.098-.10241-1.965.08593-3.9185.08651-5.86018 0-.05409-.00231-.09801.04623-.09801.10263v.61459c0 .05633.0441.10243.09801.10243h1.04333c.23205 0 .29705.07734.35175.22694l1.5081 4.12426-2.26857 6.8499-3.72895-10.98341c-.04623-.13777.00971-.21775.14239-.21775h1.18882c.05391 0 .09799-.04604.09799-.10243v-.61459c0-.05637-.04424-.10524-.09799-.10242-1.2473.06626-2.49936.07958-3.66566.09156 1.83022-2.81932 5.00583-4.68503 8.61687-4.68503zm9.0297 5.37799c.7889 1.45353 1.2369 3.11885 1.2369 4.88845 0 3.8835-2.1578 7.2637-5.3392 9.0084l3.202-9.069c.496-1.4036.9565-3.30039.9001-4.82785h-.0001zm-5.5925 14.56445c-1.0749.3823-2.2315.5908-3.4372.5908-1.0388 0-2.04111-.1549-2.98606-.4415l3.16286-9.0639 3.2604 8.9151zm-7.83052-.3948c-3.47195-1.6466-5.87358-5.1838-5.87358-9.2808 0-1.5187.33039-2.96048.92253-4.25762l4.9513 13.53862zm4.39292-20.511078c6.2009 0 11.2299 5.028948 11.2299 11.229878 0 6.2009-5.029 11.2298-11.2299 11.2298-6.20085 0-11.2298-5.0289-11.2298-11.2298 0-6.20093 5.02895-11.229878 11.2298-11.229878zm0-.709822c6.593 0 11.94 5.34701 11.94 11.9399 0 6.593-5.347 11.94-11.94 11.94-6.59289 0-11.9399-5.347-11.9399-11.94 0-6.59289 5.34701-11.9399 11.9399-11.9399z" fill="#673de6" fill-rule="evenodd"/></svg>